SplineFontDB: 3.2
FontName: hmakranten_liparxe
FullName: hmakranten liparxe
FamilyName: hmakranten liparxe
Weight: Regular
Copyright: Copyright (c) 2020, skytomo
Version: 000.000
ItalicAngle: 0
UnderlinePosition: -98
UnderlineWidth: 48
Ascent: 800
Descent: 200
InvalidEm: 0
sfntRevision: 0x00000000
LayerCount: 2
Layer: 0 0 "+gMyXYgAA" 1
Layer: 1 0 "+Uk2XYgAA" 0
XUID: [1021 312 -1532662255 9093]
StyleMap: 0x0040
FSType: 0
OS2Version: 3
OS2_WeightWidthSlopeOnly: 0
OS2_UseTypoMetrics: 0
CreationTime: 1607827417
ModificationTime: 1608093909
PfmFamily: 17
TTFWeight: 400
TTFWidth: 5
LineGap: 0
VLineGap: 0
Panose: 2 0 5 3 0 0 0 0 0 0
OS2TypoAscent: 1000
OS2TypoAOffset: 0
OS2TypoDescent: -391
OS2TypoDOffset: 0
OS2TypoLinegap: 0
OS2WinAscent: 1000
OS2WinAOffset: 0
OS2WinDescent: 391
OS2WinDOffset: 0
HheadAscent: 1000
HheadAOffset: 0
HheadDescent: -391
HheadDOffset: 0
OS2SubXSize: 650
OS2SubYSize: 699
OS2SubXOff: 0
OS2SubYOff: 140
OS2SupXSize: 650
OS2SupYSize: 699
OS2SupXOff: 0
OS2SupYOff: 479
OS2StrikeYSize: 49
OS2StrikeYPos: 258
OS2CapHeight: 645
OS2XHeight: 475
OS2Vendor: 'PfEd'
OS2CodePages: 00000001.00000000
OS2UnicodeRanges: 00000003.00000000.00000000.00000000
MarkAttachClasses: 1
DEI: 91125
LangName: 1033 "" "" "" "FontForge 2.0 : hmakranten liparxe : 14-12-2020" "" "" "" "" "" "" "" "" "" "SIL Open Font License"
Encoding: UnicodeBmp
UnicodeInterp: none
NameList: AGL For New Fonts
DisplaySize: -48
AntiAlias: 1
FitToEm: 0
WidthSeparation: 150
WinInfo: 80 16 3
BeginPrivate: 2
BlueValues 55 [-12 0 486 498 518 530 574 586 638 650 656 668 712 724]
BlueShift 1 0
EndPrivate
BeginChars: 65537 76

StartChar: .notdef
Encoding: 65536 -1 0
Width: 500
Flags: MW
HStem: 0 50<100 400 100 450> 446 50<100 400 100 100>
VStem: 50 50<50 50 50 446> 400 50<50 446 446 446>
LayerCount: 2
Fore
SplineSet
50 0 m 1
 50 496 l 1
 450 496 l 1
 450 0 l 1
 50 0 l 1
100 50 m 1
 400 50 l 1
 400 446 l 1
 100 446 l 1
 100 50 l 1
EndSplineSet
Validated: 1
EndChar

StartChar: exclam
Encoding: 33 33 1
Width: 287
Flags: MW
HStem: 372 126<128.5 161>
VStem: 85 119<417 454> 103 83<-184 -184> 116 57<288 288>
LayerCount: 2
Fore
SplineSet
103 -184 m 1xa0
 105 -90 l 1
 116 288 l 1
 173 288 l 1x90
 184 -90 l 1
 186 -184 l 1
 103 -184 l 1xa0
145 372 m 0
 112 372 85 398 85 436 c 0
 85 472 112 498 145 498 c 0
 177 498 204 472 204 436 c 0xc0
 204 398 177 372 145 372 c 0
EndSplineSet
Validated: 1
EndChar

StartChar: quotedbl
Encoding: 34 34 2
Width: 424
Flags: MW
HStem: 431 259<99 99 99 149 276 326 276 276>
VStem: 83 82<598 598> 260 82<598 598>
LayerCount: 2
Fore
SplineSet
99 431 m 1
 83 598 l 1
 80 690 l 1
 168 690 l 1
 165 598 l 1
 149 431 l 1
 99 431 l 1
276 431 m 1
 260 598 l 1
 257 690 l 1
 345 690 l 1
 342 598 l 1
 326 431 l 1
 276 431 l 1
EndSplineSet
Validated: 1
EndChar

StartChar: numbersign
Encoding: 35 35 3
Width: 247
Flags: MW
HStem: 431 259<99 99 99 149>
VStem: 83 82<598 598>
LayerCount: 2
Fore
SplineSet
99 431 m 1
 83 598 l 1
 80 690 l 1
 168 690 l 1
 165 598 l 1
 149 431 l 1
 99 431 l 1
EndSplineSet
Validated: 1
EndChar

StartChar: quotesingle
Encoding: 39 39 4
Width: 345
Flags: MW
HStem: 424 74<49 75.5 37.5 79.5>
VStem: 182 82<0 312 0 712>
LayerCount: 2
Fore
SplineSet
264 0 m 1
 264 712 l 1
 189 712 l 1
 189 398 l 1
 186 398 l 1
 153 459 103 498 48 498 c 0
 27 498 12 495 -4 488 c 1
 14 418 l 1
 29 422 39 424 59 424 c 0
 100 424 149 394 182 312 c 1
 182 0 l 1
 264 0 l 1
EndSplineSet
Validated: 9
EndChar

StartChar: parenleft
Encoding: 40 40 5
Width: 301
Flags: MW
VStem: 82 68<202 354 202 366>
LayerCount: 2
Fore
SplineSet
214 -176 m 1
 131 -42 82 102 82 278 c 0
 82 454 131 598 214 732 c 1
 265 708 l 1
 188 581 150 430 150 278 c 0
 150 126 188 -25 265 -152 c 1
 214 -176 l 1
EndSplineSet
Validated: 1
EndChar

StartChar: parenright
Encoding: 41 41 6
Width: 301
Flags: MW
VStem: 153 68<202 354>
LayerCount: 2
Fore
SplineSet
89 -176 m 1
 38 -152 l 1
 115 -25 153 126 153 278 c 0
 153 430 115 581 38 708 c 1
 89 732 l 1
 172 598 221 454 221 278 c 0
 221 102 172 -42 89 -176 c 1
EndSplineSet
Validated: 1
EndChar

StartChar: plus
Encoding: 43 43 7
Width: 495
Flags: MW
HStem: 299 62<34 216 34 216 281 463>
VStem: 216 65<299 556 361 556 361 556>
LayerCount: 2
Fore
SplineSet
216 299 m 1
 34 299 l 1
 34 361 l 1
 216 361 l 1
 216 556 l 1
 281 556 l 1
 281 361 l 1
 463 361 l 1
 463 299 l 1
 216 299 l 1
EndSplineSet
Validated: 1
EndChar

StartChar: hyphen
Encoding: 45 45 8
Width: 309
Flags: MW
HStem: 219 63<41 271 41 271>
VStem: 41 230<219 282 219 282>
LayerCount: 2
Fore
SplineSet
41 219 m 1
 41 282 l 1
 271 282 l 1
 271 219 l 1
 41 219 l 1
EndSplineSet
Validated: 1
EndChar

StartChar: zero
Encoding: 48 48 9
Width: 495
Flags: MW
HStem: -12 66<211.5 286 211.5 312.5> 584 66<211.5 286>
VStem: 44 80<227.5 414.5 227.5 428> 373 80<227.5 414.5>
LayerCount: 2
Fore
SplineSet
249 -12 m 0
 121 -12 44 107 44 321 c 0
 44 535 121 650 249 650 c 0
 376 650 453 535 453 321 c 0
 453 107 376 -12 249 -12 c 0
249 54 m 0
 323 54 373 134 373 321 c 0
 373 508 323 584 249 584 c 0
 174 584 124 508 124 321 c 0
 124 134 174 54 249 54 c 0
EndSplineSet
Validated: 1
EndChar

StartChar: one
Encoding: 49 49 10
Width: 496
Flags: MW
HStem: 0 21G<90 90 90 173> 568 70<173 468 173 173>
VStem: 90 83<0 568 0 638 0 638>
LayerCount: 2
Fore
SplineSet
90 0 m 1
 90 638 l 1
 468 638 l 1
 468 568 l 1
 173 568 l 1
 173 0 l 1
 90 0 l 1
EndSplineSet
Validated: 1
EndChar

StartChar: four
Encoding: 52 52 11
Width: 495
Flags: MW
HStem: 0 71<40 46.5 40 46.5 387 452> 583 67<203.5 270.5>
VStem: 369 80<330.5 439>
LayerCount: 2
Fore
SplineSet
40 0 m 1
 40 71 l 1
 53 71 178 70 188 70 c 1
 309 190 369 281 369 380 c 0
 369 498 311 583 230 583 c 0
 177 583 120 549 83 506 c 1
 37 551 l 1
 90 611 158 650 240 650 c 0
 358 650 449 518 449 385 c 0
 449 261 378 168 280 65 c 1
 315 68 354 71 387 71 c 2
 452 71 l 1
 452 0 l 1
 40 0 l 1
EndSplineSet
Validated: 1
EndChar

StartChar: six
Encoding: 54 54 12
Width: 540
Flags: MW
HStem: -12 68<229.5 313 229.5 330.5> 430 208<230 313 230 313>
VStem: 46 85<186.5 298 186.5 314> 230 82<494 638> 411 85<186.5 298>
CounterMasks: 1 38
LayerCount: 2
Fore
SplineSet
230 638 m 1
 313 638 l 1
 312 494 l 1
 413 475 496 386 496 242 c 0
 496 81 390 -12 271 -12 c 0
 152 -12 46 81 46 242 c 0
 46 386 129 475 230 494 c 1
 230 638 l 1
271 56 m 0
 355 56 411 131 411 242 c 0
 411 354 355 430 271 430 c 0
 188 430 131 354 131 242 c 0
 131 131 188 56 271 56 c 0
EndSplineSet
Validated: 1
EndChar

StartChar: nine
Encoding: 57 57 13
Width: 495
Flags: MW
HStem: -12 65<205.5 277.5 205.5 299.5> 328 62<204.5 256 175 264.5> 531 21G<106 106> 581 69<191 255.5>
VStem: 48 78<151 234.5 151 258.5> 379 78
LayerCount: 2
Fore
SplineSet
244 328 m 0
 165 328 126 276 126 193 c 0
 126 109 174 53 237 53 c 0
 318 53 367 120 377 244 c 1
 337 303 285 328 244 328 c 0
237 -12 m 0
 134 -12 48 71 48 193 c 0
 48 324 120 390 230 390 c 0
 282 390 339 359 379 310 c 1
 375 512 300 581 211 581 c 0
 171 581 132 562 106 531 c 1
 60 582 l 1
 96 621 145 650 214 650 c 0
 341 650 457 551 457 295 c 0
 457 90 362 -12 237 -12 c 0
EndSplineSet
Validated: 1
EndChar

StartChar: colon
Encoding: 58 58 14
Width: 247
Flags: MW
HStem: -12 126<108.5 141> 349 126<108.5 141>
VStem: 65 119<32 69 393 430>
LayerCount: 2
Fore
SplineSet
125 349 m 0
 92 349 65 375 65 411 c 0
 65 449 92 475 125 475 c 0
 157 475 184 449 184 411 c 0
 184 375 157 349 125 349 c 0
125 -12 m 0
 92 -12 65 14 65 50 c 0
 65 88 92 114 125 114 c 0
 157 114 184 88 184 50 c 0
 184 14 157 -12 125 -12 c 0
EndSplineSet
Validated: 1
EndChar

StartChar: semicolon
Encoding: 59 59 15
Width: 247
Flags: MW
HStem: -1 115<112.5 128.5> 349 126<108.5 141>
VStem: 65 119<393 430> 137 61
LayerCount: 2
Fore
SplineSet
125 349 m 0xe0
 92 349 65 375 65 411 c 0
 65 449 92 475 125 475 c 0
 157 475 184 449 184 411 c 0
 184 375 157 349 125 349 c 0xe0
67 -170 m 1
 47 -122 l 1
 104 -97 138 -53 137 0 c 1
 134 -1 130 -1 127 -1 c 0
 95 -1 68 19 68 56 c 0
 68 92 96 114 129 114 c 0
 172 114 198 77 198 17 c 0xd0
 198 -69 148 -136 67 -170 c 1
EndSplineSet
Validated: 33
EndChar

StartChar: less
Encoding: 60 60 16
Width: 495
Flags: W
LayerCount: 2
Fore
SplineSet
463 131 m 1
 34 299 l 1
 34 365 l 1
 463 533 l 1
 463 462 l 1
 252 384 l 1
 118 334 l 1
 118 330 l 1
 252 280 l 1
 463 202 l 1
 463 131 l 1
EndSplineSet
Validated: 1
EndChar

StartChar: greater
Encoding: 62 62 17
Width: 495
Flags: W
LayerCount: 2
Fore
SplineSet
34 131 m 1
 34 202 l 1
 245 280 l 1
 379 330 l 1
 379 334 l 1
 245 384 l 1
 34 462 l 1
 34 533 l 1
 463 365 l 1
 463 299 l 1
 34 131 l 1
EndSplineSet
Validated: 1
EndChar

StartChar: F
Encoding: 70 70 23
Width: 554
Flags: HMW
HStem: 0 21G<79 79 79 161 386 386> 427 72<241 305>
VStem: 79 82<0 297 0 308 0 370> 386 82<0 297 297 308 -27 342.5>
LayerCount: 2
Fore
SplineSet
225 536 m 1
 183 577 l 1
 353 744 l 1
 404 689 l 1
 225 536 l 1
79 0 m 1
 79 308 l 2
 79 432 171 499 273 499 c 0
 375 499 468 398.750976562 468 308 c 2
 468 -27 l 1
 129 -132 l 1
 508 -198 l 1
 508 -256 l 1
 47 -168 l 1
 47 -105 l 1
 386 0 l 1
 386 297 l 2
 386 388 337 427 273 427 c 0
 209 427 161 391.54296875 161 297 c 2
 161 0 l 1
 79 0 l 1
EndSplineSet
Validated: 524289
EndChar

StartChar: V
Encoding: 86 86 38
Width: 841
Flags: HMW
HStem: 0 21G<58 58 58 140 365 365 365 447 672 672> 427 72<220 282.07 201 284 528.93 591>
VStem: 58 82<0 297 0 308 0 370> 365 82<0 297 0 344> 672 82<0 297 297 308 -27 344>
CounterMasks: 1 38
LayerCount: 2
Fore
SplineSet
365 536 m 1
 323 577 l 1
 493 744 l 1
 544 689 l 1
 365 536 l 1
58 0 m 1
 58 308 l 2
 58 432 150 499 252 499 c 0
 312.139648438 499 369.151367188 475.708007812 405.81640625 431.173828125 c 1
 442.196289062 475.708007812 498.860351562 499 559 499 c 0
 661 499 754 432 754 308 c 2
 754 -27 l 1
 182 -132 l 1
 794 -210 l 1
 794 -256 l 1
 100 -168 l 1
 100 -105 l 1
 672 0 l 1
 672 297 l 2
 672 391 623 427 559 427 c 0
 495 427 447 391.54296875 447 297 c 2
 447 0 l 1
 365 0 l 1
 365 297 l 2
 365 391 316 427 252 427 c 0
 188 427 140 391.54296875 140 297 c 2
 140 0 l 1
 58 0 l 1
EndSplineSet
Validated: 524289
EndChar

StartChar: X
Encoding: 88 88 40
Width: 826
Flags: HMW
HStem: 0 21G<58 58 58 140 365 365 365 447 672 672> 427 72<220 282.07 201 284 528.93 591>
VStem: 58 82<0 297 0 308 0 370> 365 82<0 297 0 344> 672 82<0 297 297 308 -27 344>
CounterMasks: 1 38
LayerCount: 2
Fore
SplineSet
365 536 m 1
 323 577 l 1
 493 744 l 1
 544 689 l 1
 365 536 l 1
58 0 m 1
 58 308 l 2
 58 432 150 499 252 499 c 0
 312.139648438 499 369.151367188 475.708007812 405.81640625 431.174804688 c 1
 442.196289062 475.708007812 498.860351562 499 559 499 c 0
 661 499 754 432 754 308 c 2
 754 -27 l 1
 182 -256 l 1
 100 -229 l 1
 672 0 l 1
 672 297 l 2
 672 391 623 427 559 427 c 0
 495 427 447 391.54296875 447 297 c 2
 447 0 l 1
 365 0 l 1
 365 297 l 2
 365 391 316 427 252 427 c 0
 188 427 140 391.54296875 140 297 c 2
 140 0 l 1
 58 0 l 1
EndSplineSet
Validated: 524289
EndChar

StartChar: bracketleft
Encoding: 91 91 43
Width: 301
Flags: MW
HStem: -152 47<156 273 156 273> 661 47<156 273 156 156>
VStem: 94 62<-105 661 -105 708 -105 708> 94 179<-152 -105 661 708>
LayerCount: 2
Fore
SplineSet
94 -152 m 1xd0
 94 708 l 1
 273 708 l 1
 273 661 l 1xd0
 156 661 l 1
 156 -105 l 1xe0
 273 -105 l 1
 273 -152 l 1
 94 -152 l 1xd0
EndSplineSet
Validated: 1
EndChar

StartChar: bracketright
Encoding: 93 93 44
Width: 301
Flags: MW
HStem: -152 47<31 147 31 147 31 209> 661 47<31 147 31 209>
VStem: 31 178<-152 -105 -105 -105 661 708 -152 708> 147 62<-105 661 661 661>
LayerCount: 2
Fore
SplineSet
31 -152 m 1xe0
 31 -105 l 1xe0
 147 -105 l 1
 147 661 l 1xd0
 31 661 l 1
 31 708 l 1
 209 708 l 1
 209 -152 l 1
 31 -152 l 1xe0
EndSplineSet
Validated: 1
EndChar

StartChar: a
Encoding: 97 97 45
Width: 500
Flags: W
HStem: 0 62<151 329.658> 225 57<151 336.931> 421 65<151 403>
VStem: 73 78<62 225 282 421> 362 76<90.2786 200.825>
LayerCount: 2
Fore
SplineSet
73 0 m 1
 73 486 l 1
 403 486 l 1
 403 421 l 1
 151 421 l 1
 151 282 l 1
 250 282 l 2
 358 282 438 249 438 146 c 0
 438 43 355.469726562 -0 254 0 c 2
 73 0 l 1
151 62 m 1
 242 62 l 2
 322 62 362 89 362 148 c 0
 362 204 321 225 241 225 c 2
 151 225 l 1
 151 62 l 1
EndSplineSet
Validated: 524289
EndChar

StartChar: b
Encoding: 98 98 46
Width: 576
Flags: HMW
HStem: -12 68<246.5 330 246.5 347.5> 430 282<247 330 247 330>
VStem: 63 85<186.5 298 186.5 314> 247 82<494 712> 428 85<186.5 298>
CounterMasks: 1 38
LayerCount: 2
Fore
SplineSet
247 712 m 1
 330 712 l 1
 329 494 l 1
 430 475 513 386 513 242 c 0
 513 81 407 -12 288 -12 c 0
 169 -12 63 81 63 242 c 0
 63 386 146 475 247 494 c 1
 247 712 l 1
288 56 m 0
 372 56 428 131 428 242 c 0
 428 354 372 430 288 430 c 0
 205 430 148 354 148 242 c 0
 148 131 205 56 288 56 c 0
EndSplineSet
Validated: 1
EndChar

StartChar: c
Encoding: 99 99 47
Width: 506
Flags: HMW
HStem: -216 68<201.5 277.5 201.5 302.5> 96 63<167 235 167 243> 379 67<211.5 272>
VStem: 348 84<245.5 309> 371 83<-66.5 7>
LayerCount: 2
Fore
SplineSet
244 -216 m 0xe8
 142 -216 77 -173 34 -126 c 1
 76 -72 l 1
 114 -112 164 -148 239 -148 c 0
 316 -148 371 -102 371 -31 c 0xe8
 371 45 319 96 167 96 c 1
 167 159 l 1
 303 159 348 211 348 278 c 0
 348 340 306 379 238 379 c 0
 185 379 140 352 102 314 c 1
 58 366 l 1
 107 412 166 446 241 446 c 0
 352 446 432 387 432 284 c 0xf0
 432 207 385 158 316 132 c 1
 316 128 l 1
 393 110 454 54 454 -34 c 0
 454 -147 361 -216 244 -216 c 0xe8
EndSplineSet
Validated: 1
EndChar

StartChar: d
Encoding: 100 100 48
Width: 712
Flags: HMW
HStem: 0 67<316 316 316 395> 466 20G<69 151 151 151 316 395 395 395 559 642 642 642>
VStem: 69 82<200 204 204 486> 316 79<0 0 67 486> 559 83<204 486>
LayerCount: 2
Fore
SplineSet
316 0 m 1
 161 7 69 88 69 200 c 2
 69 486 l 1
 151 486 l 1
 151 204 l 2
 151 121 207 72 316 67 c 1
 316 486 l 1
 395 486 l 1
 395 67 l 1
 504 73 559 121 559 204 c 2
 559 486 l 1
 642 486 l 1
 642 200 l 2
 642 88 549 7 395 0 c 1
 316 0 l 1
EndSplineSet
Validated: 1
EndChar

StartChar: e
Encoding: 101 101 49
Width: 532
Flags: HMW
HStem: -12 71<212 252.5> 0 21G<389 457 389 389> 466 20G<70 153 153 153 375 457 457 457>
VStem: 70 83<178 189 189 486> 375 82<141 486 0 486> 389 68<0 486>
LayerCount: 2
Fore
SplineSet
219 -12 m 0xb4
 116 -12 70 54 70 178 c 2
 70 486 l 1
 153 486 l 1
 153 189 l 2
 153 98 180 59 244 59 c 0
 294 59 329 84 375 141 c 1
 375 486 l 1
 457 486 l 1xb8
 457 0 l 1
 389 0 l 1x74
 382 76 l 1
 379 76 l 1
 334 23 286 -12 219 -12 c 0xb4
EndSplineSet
Validated: 1
EndChar

StartChar: f
Encoding: 102 102 50
Width: 848
Flags: HMW
HStem: 0 21G<70 70 70 152 377 377 377 459 684 684> 427 72<232 294.07 213 296 540.93 603>
VStem: 70 82<0 297 0 308 0 370> 377 82<0 297 0 344> 684 82<0 297 297 308 -27 344>
LayerCount: 2
Fore
SplineSet
70 0 m 1
 70 308 l 2
 70 432 162 499 264 499 c 0
 324.139648438 499 381.151367188 475.708007812 417.81640625 431.173828125 c 1
 454.196289062 475.708007812 510.860351562 499 571 499 c 0
 673 499 766 432 766 308 c 2
 766 -27 l 1
 194 -132 l 1
 806 -210 l 1
 806 -256 l 1
 112 -168 l 1
 112 -105 l 1
 684 0 l 1
 684 297 l 2
 684 391 635 427 571 427 c 0
 507 427 459 391.54296875 459 297 c 2
 459 0 l 1
 377 0 l 1
 377 297 l 2
 377 391 328 427 264 427 c 0
 200 427 152 391.54296875 152 297 c 2
 152 0 l 1
 70 0 l 1
EndSplineSet
Validated: 524289
EndChar

StartChar: g
Encoding: 103 103 51
Width: 556
Flags: W
HStem: -140 100<139.438 222.562 333.121 414.879> 0 21G<73 156 398 481> 416 70<156 398>
VStem: 73 83<0 416> 131 100<-131.562 -48.4375> 325 98<-131.562 -48.4375> 398 83<0 416>
LayerCount: 2
Fore
SplineSet
181 -140 m 0xe8
 153 -140 131 -118 131 -90 c 0
 131 -62 153 -40 181 -40 c 0
 209 -40 231 -62 231 -90 c 0
 231 -118 209 -140 181 -140 c 0xe8
374 -140 m 0
 346 -140 325 -118 325 -90 c 0
 325 -62 346 -40 374 -40 c 0
 402 -40 423 -62 423 -90 c 0xe4
 423 -118 402 -140 374 -140 c 0
73 0 m 1xf2
 73 486 l 1
 481 486 l 1
 481 0 l 1
 398 0 l 1
 398 416 l 1
 156 416 l 1
 156 0 l 1
 73 0 l 1xf2
EndSplineSet
Validated: 1
EndChar

StartChar: h
Encoding: 104 104 52
Width: 505
Flags: HMW
HStem: -12 68<253.5 320> 430 68<256 320>
VStem: 63 85<186.5 298 186.5 323.5>
LayerCount: 2
Fore
SplineSet
291 -12 m 0
 162 -12 63 81 63 242 c 0
 63 405 172 498 297 498 c 0
 361 498 405 473 439 441 c 1
 398 389 l 1
 371 414 340 430 300 430 c 0
 212 430 148 354 148 242 c 0
 148 131 209 56 298 56 c 0
 343 56 383 76 412 102 c 1
 448 50 l 1
 404 10 349 -12 291 -12 c 0
EndSplineSet
Validated: 1
EndChar

StartChar: i
Encoding: 105 105 53
Width: 535
Flags: HMW
HStem: 0 21G<73 73 73 155 380 380 380 462> 427 71<280.5 320> 466 20G<73 141 141 141>
VStem: 73 68<0 486 486 486> 73 82<0 352 0 486> 380 82<0 297 297 308 0 342.5>
LayerCount: 2
Fore
SplineSet
73 0 m 1xcc
 73 486 l 1
 141 486 l 1xb4
 148 416 l 1
 151 416 l 1
 197 462 247 498 314 498 c 0
 416 498 462 432 462 308 c 2
 462 0 l 1
 380 0 l 1
 380 297 l 2
 380 388 352 427 288 427 c 0
 238 427 204 401 155 352 c 1
 155 0 l 1
 73 0 l 1xcc
EndSplineSet
Validated: 1
EndChar

StartChar: j
Encoding: 106 106 54
Width: 535
Flags: HMW
HStem: -12 71<212 252.5> 466 20G<70 153 153 153 377 460 460 460>
VStem: 70 83<178 189 189 486> 377 83<-205 -31 -31 -31 141 486 -205 486>
LayerCount: 2
Fore
SplineSet
377 -205 m 1
 377 -31 l 1
 382 75 l 1
 335 23 286 -12 219 -12 c 0
 116 -12 70 54 70 178 c 2
 70 486 l 1
 153 486 l 1
 153 189 l 2
 153 98 180 59 244 59 c 0
 294 59 330 83 377 141 c 1
 377 486 l 1
 460 486 l 1
 460 -205 l 1
 377 -205 l 1
EndSplineSet
EndChar

StartChar: k
Encoding: 107 107 55
Width: 556
Flags: HMW
HStem: 0 21G<73 73 73 156 398 398 398 481> 416 70<156 398 156 156>
VStem: 73 83<0 416 0 486 0 486> 398 83<0 416 416 416>
LayerCount: 2
Fore
SplineSet
73 0 m 1
 73 486 l 1
 481 486 l 1
 481 0 l 1
 398 0 l 1
 398 416 l 1
 156 416 l 1
 156 0 l 1
 73 0 l 1
EndSplineSet
Validated: 1
EndChar

StartChar: l
Encoding: 108 108 56
Width: 486
Flags: HMW
HStem: -12 66<199.5 257 199.5 282.5> 221 63<153 209 209 221 153 209> 433 65<197 254>
VStem: 325 81<343.5 384> 345 82<114.5 167.5>
LayerCount: 2
Fore
SplineSet
230 -12 m 0xe8
 164 -12 103 2 47 50 c 1
 83 103 l 1
 127 67 175 54 224 54 c 0
 290 54 345 88 345 141 c 0xe8
 345 194 301 221 221 221 c 2
 153 221 l 1
 153 284 l 1
 209 284 l 2
 287 284 325 313 325 359 c 0
 325 409 283 433 225 433 c 0
 169 433 132 417 93 390 c 1
 58 444 l 1
 105 477 158 498 229 498 c 0
 324 498 406 455 406 368 c 0
 406 319 377 278 325 258 c 1
 325 254 l 1xf0
 383 240 427 204 427 134 c 0
 427 44 335 -12 230 -12 c 0xe8
EndSplineSet
Validated: 1
EndChar

StartChar: m
Encoding: 109 109 57
Width: 576
Flags: HMW
HStem: -12 68<246.5 330 246.5 347.5> 430 68<246.5 329.5 228.5 330> 660 64<265.5 317>
VStem: 63 85<186.5 298 186.5 323.5> 406 78<562.5 618> 428 85<186.5 298>
LayerCount: 2
Fore
SplineSet
360 486 m 5xf8
 446 456 513 371 513 242 c 0xf4
 513 81 407 -12 288 -12 c 0
 169 -12 63 81 63 242 c 0
 63 405 169 498 288 498 c 4
 371 498 406 539 406 586 c 4
 406 650 345 660 289 660 c 4
 242 660 182 649 99 619 c 5
 79 685 l 5
 159 711 227 724 288 724 c 4
 398 724 484 668 484 586 c 4
 484 520 407 486 360 486 c 5xf8
288 56 m 0
 372 56 428 131 428 242 c 0
 428 354 372 430 288 430 c 0
 205 430 148 354 148 242 c 0
 148 131 205 56 288 56 c 0
EndSplineSet
Validated: 1
EndChar

StartChar: n
Encoding: 110 110 58
Width: 746
Flags: HMW
HStem: -12 68<429.5 509 429.5 531> 0 21G<73 155 73 73> 213 73<155 260 155 261> 430 68<429.5 509> 466 20G<73 155 155 155>
VStem: 73 82<0 213 0 286 286 486> 260 77<213 213> 598 85<186.5 298>
LayerCount: 2
Fore
SplineSet
469 56 m 0xb7
 549 56 598 131 598 242 c 0
 598 354 549 430 469 430 c 0
 390 430 337 354 337 242 c 0
 337 131 390 56 469 56 c 0xb7
473 -12 m 0
 359 -12 271 71 260 213 c 1
 155 213 l 1
 155 0 l 1
 73 0 l 1
 73 486 l 1
 155 486 l 1x6f
 155 286 l 1
 261 286 l 1
 277 420 363 498 473 498 c 0
 589 498 683 405 683 242 c 0
 683 81 589 -12 473 -12 c 0
EndSplineSet
Validated: 1
EndChar

StartChar: o
Encoding: 111 111 59
Width: 496
Flags: HMW
HStem: -12 66<175 243 175 272> 221 65<139 348 139 350 139 348> 433 65<182 243.5>
VStem: 350 83<221 221>
LayerCount: 2
Fore
SplineSet
207 -12 m 0
 143 -12 87 11 47 51 c 1
 82 101 l 1
 112 73 151 54 199 54 c 0
 287 54 344 111 350 221 c 1
 139 221 l 1
 139 286 l 1
 348 286 l 1
 336 384 281 433 206 433 c 0
 158 433 125 415 96 390 c 1
 57 439 l 1
 92 471 140 498 211 498 c 0
 333 498 433 416 433 242 c 0
 433 74 337 -12 207 -12 c 0
EndSplineSet
Validated: 1
EndChar

StartChar: p
Encoding: 112 112 60
Width: 509
Flags: HMW
HStem: 0 21G<44 44 44 130 373 373 373 462> 466 20G<56 145 145 145 365 451 451 451>
LayerCount: 2
Fore
SplineSet
44 0 m 1
 203 254 l 1
 56 486 l 1
 145 486 l 1
 210 379 l 2
 225 353 241 325 258 298 c 1
 262 298 l 1
 276 325 291 353 306 379 c 2
 365 486 l 1
 451 486 l 1
 304 245 l 1
 462 0 l 1
 373 0 l 1
 302 113 l 2
 285 142 267 172 249 200 c 1
 245 200 l 1
 228 172 212 143 196 113 c 2
 130 0 l 1
 44 0 l 1
EndSplineSet
Validated: 1
EndChar

StartChar: q
Encoding: 113 113 61
Width: 733
Flags: HMW
HStem: -12 68<139.5 179.5 139.5 204 546.5 585.5> 201 86<339 387 339 339> 430 68<140 178.5 547.5 586>
VStem: 255 84<201 201 201 298> 387 84<201 201 287 287>
LayerCount: 2
Fore
SplineSet
387 201 m 1
 339 201 l 1
 327 65 251 -12 157 -12 c 0
 122 -12 77 10 51 50 c 1
 72 102 l 1
 90 76 126 56 153 56 c 0
 206 56 255 131 255 242 c 0
 255 354 205 430 152 430 c 0
 128 430 97 414 81 389 c 1
 57 441 l 1
 78 473 115 498 154 498 c 0
 247 498 324 422 338 287 c 1
 387 287 l 1
 401 422 479 498 572 498 c 0
 611 498 648 473 669 441 c 1
 644 389 l 1
 628 414 598 430 574 430 c 0
 521 430 471 354 471 242 c 0
 471 131 520 56 573 56 c 0
 600 56 635 76 653 102 c 1
 674 50 l 1
 648 10 603 -12 568 -12 c 0
 474 -12 399 65 387 201 c 1
EndSplineSet
Validated: 1
EndChar

StartChar: r
Encoding: 114 114 62
Width: 391
Flags: HMW
HStem: 0 21G<73 73 73 155> 424 74<261.5 288> 692 20G<73 148 148 148>
VStem: 73 75<398 712 398 712 398 712> 73 82<0 312 0 712>
LayerCount: 2
Fore
SplineSet
73 0 m 1xe8
 73 712 l 1
 148 712 l 1
 148 398 l 1xf0
 151 398 l 1
 184 459 234 498 289 498 c 0
 310 498 325 495 341 488 c 1
 323 418 l 1
 308 422 298 424 278 424 c 0
 237 424 188 394 155 312 c 1
 155 0 l 1
 73 0 l 1xe8
EndSplineSet
Validated: 1
EndChar

StartChar: s
Encoding: 115 115 63
Width: 549
Flags: HMW
HStem: 0 65<156 218 218 220> 420 66<156 216 216 218 156 156>
VStem: 73 83<65 65 65 420> 400 86<165 289.5>
LayerCount: 2
Fore
SplineSet
73 0 m 1
 73 486 l 1
 216 486 l 2
 387 486 486 399 486 229 c 0
 486 58 387 0 220 0 c 2
 73 0 l 1
156 65 m 1
 218 65 l 2
 341 65 400 101 400 229 c 0
 400 350 341 420 218 420 c 2
 156 420 l 1
 156 65 l 1
EndSplineSet
Validated: 1
EndChar

StartChar: t
Encoding: 116 116 64
Width: 549
Flags: HMW
HStem: 0 21G<73 73 73 162 394 394 394 474> 466 20G<73 153 153 153 384 474 474 474>
VStem: 73 80<257 284 284 486> 394 80<0 202 202 228>
LayerCount: 2
Fore
SplineSet
73 0 m 1
 73 486 l 1
 153 486 l 1
 153 284 l 2
 153 230 149 171 145 102 c 1
 149 102 l 1
 168 137 193 182 212 212 c 2
 384 486 l 1
 474 486 l 1
 474 0 l 1
 394 0 l 1
 394 202 l 2
 394 254 396 314 402 384 c 1
 398 384 l 1
 379 348 354 303 335 273 c 2
 162 0 l 1
 73 0 l 1
EndSplineSet
Validated: 1
EndChar

StartChar: u
Encoding: 117 117 65
Width: 497
Flags: HMW
HStem: -12 68<177 243.5 176.5 270.5> 430 68<177 241>
VStem: 349 85<186.5 298>
LayerCount: 2
Fore
SplineSet
206 -12 m 0
 148 -12 93 10 49 50 c 1
 85 102 l 1
 114 76 154 56 199 56 c 0
 288 56 349 131 349 242 c 0
 349 354 285 430 197 430 c 0
 157 430 126 414 99 389 c 1
 58 441 l 1
 92 473 136 498 200 498 c 0
 325 498 434 405 434 242 c 0
 434 81 335 -12 206 -12 c 0
EndSplineSet
Validated: 1
EndChar

StartChar: v
Encoding: 118 118 66
Width: 550
Flags: HMW
HStem: 0 21G<79 79 79 161 386 386> 427 72<241 305>
VStem: 79 82<0 297 0 308 0 370> 386 82<0 297 297 308 -27 342.5>
LayerCount: 2
Fore
SplineSet
79 0 m 1
 79 308 l 2
 79 432 171 499 273 499 c 0
 375 499 468 398.750976562 468 308 c 2
 468 -27 l 1
 129 -132 l 1
 508 -198 l 1
 508 -256 l 1
 47 -168 l 1
 47 -105 l 1
 386 0 l 1
 386 297 l 2
 386 388 337 427 273 427 c 0
 209 427 161 391.54296875 161 297 c 2
 161 0 l 1
 79 0 l 1
EndSplineSet
Validated: 524289
EndChar

StartChar: w
Encoding: 119 119 67
Width: 576
Flags: HMW
HStem: -12 68<246.5 330 246.5 347.5> 430 68<246.5 330>
VStem: 63 85<186.5 298 186.5 323.5> 428 85<186.5 298>
LayerCount: 2
Fore
SplineSet
288 -12 m 0
 169 -12 63 81 63 242 c 0
 63 405 169 498 288 498 c 0
 407 498 513 405 513 242 c 0
 513 81 407 -12 288 -12 c 0
288 56 m 0
 372 56 428 131 428 242 c 0
 428 354 372 430 288 430 c 0
 205 430 148 354 148 242 c 0
 148 131 205 56 288 56 c 0
EndSplineSet
Validated: 1
EndChar

StartChar: x
Encoding: 120 120 68
Width: 839
Flags: HMW
HStem: 0 21G<70 70 70 152 377 377 377 459 684 684> 427 72<232 294.07 213 296 540.93 603>
VStem: 70 82<0 297 0 308 0 370> 377 82<0 297 0 344> 684 82<0 297 297 308 -27 344>
CounterMasks: 1 38
LayerCount: 2
Fore
SplineSet
70 0 m 1
 70 308 l 2
 70 432 162 499 264 499 c 0
 324.139648438 499 381.151367188 475.708007812 417.81640625 431.173828125 c 1
 454.196289062 475.708007812 510.860351562 499 571 499 c 0
 673 499 766 432 766 308 c 2
 766 -27 l 1
 194 -256 l 1
 112 -229 l 1
 684 0 l 1
 684 297 l 2
 684 391 635 427 571 427 c 0
 507 427 459 391.54296875 459 297 c 2
 459 0 l 1
 377 0 l 1
 377 297 l 2
 377 391 328 427 264 427 c 0
 200 427 152 391.54296875 152 297 c 2
 152 0 l 1
 70 0 l 1
EndSplineSet
Validated: 524289
EndChar

StartChar: y
Encoding: 121 121 69
Width: 589
Flags: HMW
HStem: -12 68<139.5 179.5 139.5 204> 0 21G<428 514 428 428> 201 86<339 428 339 339> 430 68<140 178.5> 468 20G<428 514 514 514>
VStem: 255 84<201 201 201 298> 428 86<0 201 201 201 287 488 0 488>
LayerCount: 2
Fore
SplineSet
157 -12 m 0xa6
 122 -12 77 10 51 50 c 1
 72 102 l 1
 90 76 126 56 153 56 c 0
 206 56 255 131 255 242 c 0
 255 354 205 430 152 430 c 0
 128 430 97 414 81 389 c 1
 57 441 l 1
 78 473 115 498 154 498 c 0xb6
 247 498 324 422 338 287 c 1
 428 287 l 1
 428 488 l 1
 514 488 l 1
 514 0 l 1
 428 0 l 1x6e
 428 201 l 1
 339 201 l 1
 327 65 251 -12 157 -12 c 0xa6
EndSplineSet
Validated: 1
EndChar

StartChar: z
Encoding: 122 122 70
Width: 549
Flags: HMW
HStem: -140 100<161 189 354 382> 0 21G<73 73 73 162 394 394 394 474> 466 20G<73 153 153 153 384 474 474 474>
VStem: 73 80<257 284 284 486> 125 100<-104 -76> 319 98<-104 -76> 394 80<0 202 202 228>
LayerCount: 2
Fore
SplineSet
175 -140 m 0xe8
 147 -140 125 -118 125 -90 c 0
 125 -62 147 -40 175 -40 c 0
 203 -40 225 -62 225 -90 c 0
 225 -118 203 -140 175 -140 c 0xe8
368 -140 m 0
 340 -140 319 -118 319 -90 c 0
 319 -62 340 -40 368 -40 c 0
 396 -40 417 -62 417 -90 c 0xe4
 417 -118 396 -140 368 -140 c 0
73 0 m 1xf2
 73 486 l 1
 153 486 l 1
 153 284 l 2
 153 230 149 171 145 102 c 1
 149 102 l 1
 168 137 193 182 212 212 c 2
 384 486 l 1
 474 486 l 1
 474 0 l 1
 394 0 l 1
 394 202 l 2
 394 254 396 314 402 384 c 1
 398 384 l 1
 379 348 354 303 335 273 c 2
 162 0 l 1
 73 0 l 1xf2
EndSplineSet
Validated: 1
EndChar

StartChar: braceleft
Encoding: 123 123 71
Width: 301
Flags: MW
HStem: -152 47<188.5 273 246 273 246 273> 252 52<34 34> 661 47<228 246 246 273>
VStem: 111 67<-46.5 16.5 -46.5 17.5 539.5 602.5> 120 64<140.5 193.5 362 415>
CounterMasks: 1 e0
LayerCount: 2
Fore
SplineSet
228 -152 m 2xf0
 149 -152 111 -122 111 -19 c 0xf0
 111 54 120 107 120 174 c 0
 120 213 102 251 34 252 c 1
 34 304 l 1
 102 305 120 343 120 381 c 0xe8
 120 449 111 502 111 575 c 0
 111 678 149 708 228 708 c 2
 273 708 l 1
 273 661 l 1
 246 661 l 2
 192 661 178 635 178 570 c 0xf0
 178 509 184 457 184 389 c 0
 184 324 167 292 124 280 c 1
 124 276 l 1
 167 264 184 231 184 167 c 0xe8
 184 99 178 47 178 -14 c 0
 178 -79 192 -105 246 -105 c 2
 273 -105 l 1
 273 -152 l 1
 228 -152 l 2xf0
EndSplineSet
Validated: 1
EndChar

StartChar: braceright
Encoding: 125 125 72
Width: 301
Flags: MW
HStem: -152 47<31 57 31 57 57 75> 252 52<269 269> 661 47<31 57 31 75>
VStem: 120 63<140.5 193.5 140.5 199 362 415> 125 67<-46.5 16.5 539.5 602.5>
CounterMasks: 1 e0
LayerCount: 2
Fore
SplineSet
31 -152 m 1xe8
 31 -105 l 1
 57 -105 l 2
 111 -105 125 -79 125 -14 c 0xe8
 125 47 120 99 120 167 c 0
 120 231 136 264 179 276 c 1
 179 280 l 1
 136 292 120 324 120 389 c 0xf0
 120 457 125 509 125 570 c 0
 125 635 111 661 57 661 c 2
 31 661 l 1
 31 708 l 1
 75 708 l 2
 155 708 192 678 192 575 c 0xe8
 192 502 183 449 183 381 c 0
 183 343 202 305 269 304 c 1
 269 252 l 1
 202 251 183 213 183 174 c 0xf0
 183 107 192 54 192 -19 c 0
 192 -122 155 -152 75 -152 c 2
 31 -152 l 1xe8
EndSplineSet
Validated: 1
EndChar

StartChar: asciitilde
Encoding: 126 126 73
Width: 495
Flags: MW
HStem: 257 62<310 352.5 310 357.5> 341 62<144.5 187>
LayerCount: 2
Fore
SplineSet
336 257 m 0
 257 257 215 341 159 341 c 0
 130 341 105 323 82 280 c 1
 36 313 l 1
 72 377 118 403 161 403 c 0
 240 403 282 319 338 319 c 0
 367 319 392 337 415 380 c 1
 461 346 l 1
 425 283 379 257 336 257 c 0
EndSplineSet
Validated: 1
EndChar

StartChar: uni0086
Encoding: 134 134 74
Width: 545
Flags: MW
HStem: 0 21G<82 82 82 164 389 389 389 471> 427 72<244 308>
VStem: 82 82<0 297 0 308 0 370> 389 82<0 297 297 308 0 342.5>
LayerCount: 2
Fore
SplineSet
82 0 m 1
 82 308 l 2
 82 432 174 499 276 499 c 0
 378 499 471 432 471 308 c 2
 471 0 l 1
 389 0 l 1
 389 297 l 2
 389 388 340 427 276 427 c 0
 212 427 164 391.54296875 164 297 c 2
 164 0 l 1
 82 0 l 1
EndSplineSet
Validated: 1
EndChar

StartChar: R
Encoding: 82 82 75
Width: 390
Flags: W
HStem: 424 74<227.13 333.063> 660 64<84.4326 190.442>
VStem: 80 82<312 355.717> 204 68<531.565 647.471>
LayerCount: 2
Fore
SplineSet
80 486 m 0
 80 0 l 1
 162 0 l 1
 162 312 l 1
 195 394 244 424 285 424 c 0
 305 424 315 422 330 418 c 1
 348 488 l 1
 332 495 317 498 296 498 c 0
 241 498 191 459 158 398 c 1
 155 398 l 1
 148 486 l 1
 195 486 272 520 272 586 c 0
 272 696 205.5 724 150.5 724 c 0
 120 724 86 711 46 685 c 1
 56 619 l 1
 97.5 649 118.5 660 142 660 c 0
 170 660 204 650 204 586 c 0
 204 539 163 486 80 486 c 0
EndSplineSet
Validated: 524297
EndChar
